<svg xmlns="http://www.w3.org/2000/svg" width="100" height="100" fill="none" viewBox="0 0 100 100">
  <path fill="url(#a)" d="M57.31 15.262h2.285v.047h.04c.282-.002.56.002.841.024v.048h.065c.17-.002.337.002.507.024v.047h.055c.143-.002.28.002.42.024v.048l.382.024v.047l.31.024v.048l.309.024v.047l.238.024v.047l.262.024v.048l.214.024v.047l.214.024v.048l.215.024v.047l.166.024v.048l.19.023v.048l.168.024v.047l.166.024v.048l.167.024v.047l.143.024v.048l.142.024v.047l.053.008a.499.499 0 0 1 .186.087v.048l.142.024v.047l.12.024v.048l.095.024v.047l.05.008a.777.777 0 0 1 .212.088l.023.047.072.024v.048l.071.023v.048l.12.024v.047l.095.024v.048l.053.004c.085.026.109.069.16.139l.072.024v.047l.072.024v.048l.05.016c.109.05.205.13.283.222v.047l.095.024v.048l.072.024v.047l.071.024v.048l.072.023v.048l.071.024v.047l.072.024.032.055c.035.066.035.066.093.106.093.076.165.168.232.268v.047l.071.024v.048l.072.024v.047h.047l.024.072.037.035c.034.036.034.036.034.108l.072.023v.048h.047l.024.072.037.035c.035.036.035.036.035.107l.071.024v.072h.048l.023.119.072.023v.072h.047l.024.119.072.024v.071h.047l.048.091.027.051c.02.049.02.049.02.12h.048c.096.158.096.158.096.238h.047l.024.143h.047l.024.143h.048l.024.143h.047l.024.143h.048l.047.126.027.071a.291.291 0 0 1 .021.136h.048l.022.058c.06.16.124.318.194.474a.422.422 0 0 1 .022.182h.047l.048.137.027.077c.02.072.02.072.02.167h.048l.024.215h.048l.023.261h.048l.024.238h.047l.024.262h.048l.024.286h.047l.024.31h.048c.022.113.026.218.024.333h.047l.024.38h.048c.004.047.004.047.01.093l.012.12.006.06.007.058.005.054c.005.046.005.046.031.092.026.15.027.3.024.453h.047c.019.214.028.427.024.642h.048l.004.078.015.286a51.293 51.293 0 0 1 .016.301c0 .019.002.037.003.056.003.095.003.095.033.184.004.052.006.105.007.157l.001.048.004.15c-.024.36-.024.36.06.669.002.044.003.089.003.133v1.417l-.001.771a2608.335 2608.335 0 0 1 0 2.467v.075l-.001.376-.001 3.118h-.048v7.857c-.578.193-1.153.352-1.762.405l-.084.008c-1.32.104-2.737-.068-3.963-.58l-.049-.02a6.994 6.994 0 0 1-1.737-1.027l-.037-.03a7.278 7.278 0 0 1-.554-.507l-.063-.063a5.176 5.176 0 0 1-.435-.5 8.175 8.175 0 0 1-.96-1.544 13.665 13.665 0 0 0-.068-.139c-.683-1.389-.968-2.949-1.097-4.479l-.007-.082a6.991 6.991 0 0 1-.018-.697V35h-.047a1.397 1.397 0 0 1-.054-.408v-.274l-.001-.152-.001-.327-.002-.518a750.04 750.04 0 0 1-.006-2.288l-.002-.513c0-.672 0-.672-.016-1.344l-.003-.078c.005-.105.005-.105-.034-.193a4.64 4.64 0 0 1-.015-.233l-.012-.23a94.252 94.252 0 0 0-.008-.168l-.003-.053c.002-.082.002-.082-.033-.15a2.426 2.426 0 0 1-.012-.126l-.006-.078-.012-.163-.006-.078a35.08 35.08 0 0 0-.005-.071c-.001-.054-.001-.054-.03-.079a2.984 2.984 0 0 1-.025-.476h-.047a2.981 2.981 0 0 1-.024-.429h-.047a15.245 15.245 0 0 1-.023-.153l-.012-.086c-.006-.067-.006-.067-.037-.094a4.295 4.295 0 0 1-.013-.156l-.006-.087-.005-.066h-.047l-.024-.286h-.048a2.199 2.199 0 0 0-.074-.293c-.021-.064-.021-.064-.021-.16h-.048a1.534 1.534 0 0 1-.095-.404h-.047l-.024-.167h-.048a27.341 27.341 0 0 1-.048-.126l-.026-.072c-.021-.064-.021-.064-.021-.135h-.048l-.024-.143h-.047L58.38 24h-.048l-.023-.143-.072-.024v-.071h-.047l-.024-.12h-.048c-.095-.16-.095-.16-.095-.213h-.048l-.024-.072a10.554 10.554 0 0 1-.047-.024c-.015-.06-.015-.06-.024-.119l-.072-.023v-.048h-.047l-.024-.072a3.121 3.121 0 0 0-.119-.095c-.055-.045-.07-.06-.082-.132l-.013-.058a2.639 2.639 0 0 0-.095-.048c-.04-.03-.08-.06-.12-.092l-.06-.05a1.587 1.587 0 0 1-.154-.144v-.047h-.071v-.048l-.072-.024v-.047l-.119-.024v-.048l-.095-.023v-.048l-.119-.024v-.048l-.039-.007c-.071-.02-.133-.053-.2-.088v-.047a20.745 20.745 0 0 0-.054-.005c-.125-.027-.234-.083-.35-.138a2.67 2.67 0 0 0-.445-.152 7.397 7.397 0 0 1-.13-.037c-.502-.15-1-.177-1.52-.176h-.072c-.476 0-.476 0-.947.068-.046.01-.093.017-.14.023a1.702 1.702 0 0 0-.246.06l-.053.015-.185.056-.07.021a2.177 2.177 0 0 0-.402.17c-.052.023-.052.023-.147.023v.048l-.09.047c-.016.01-.032.018-.05.027-.05.021-.05.021-.146.021l-.023.071c-.055.04-.055.04-.124.08a1.99 1.99 0 0 0-.281.206c-.089.072-.089.072-.143.072l-.024.071c-.082.071-.082.071-.143.071l-.024.072h-.047v.047l-.12.096c-.032.039-.064.078-.095.119-.038.043-.038.043-.07.071h-.048l-.024.072h-.048l-.02.043c-.028.052-.028.052-.075.123h-.048l-.024.072h-.047l-.024.119h-.048l-.023.095h-.048l-.024.071h-.047l-.024.12h-.048l-.007.04a.581.581 0 0 1-.088.174h-.048l-.024.095h-.047l-.024.143h-.048l-.023.119h-.048l-.024.143h-.047l-.008.062a.75.75 0 0 1-.088.224h-.047l-.024.142h-.048l-.006.06a.815.815 0 0 1-.09.225 1.08 1.08 0 0 0-.07.215h-.048l-.024.167h-.047l-.024.214h-.048l-.024.215h-.047l-.024.214h-.048l-.003.048a.898.898 0 0 1-.068.309 2.977 2.977 0 0 0-.024.143h-.048l-.003.057c-.01.132-.02.247-.068.371a3.46 3.46 0 0 0-.024.143h-.047l.001.085c0 .119-.011.23-.05.344a6.36 6.36 0 0 0-.022.144c-.014.098-.03.194-.05.29-.02.093-.032.185-.04.28-.006.048-.006.048-.018.093-.02.083-.026.169-.034.254-.013.121-.027.24-.05.36a2.779 2.779 0 0 0-.041.403c-.006.08-.006.08-.018.136a1.735 1.735 0 0 0-.024.217l-.006.088-.006.092-.012.18-.005.08c-.007.073-.007.073-.018.128-.018.097-.02.195-.025.293l-.003.07c-.013.317-.017.635-.021.953-.008.534-.008.534-.03.77a4.54 4.54 0 0 0-.005.33c0 .137-.001.273-.005.41-.034 1.35-.04 2.7.026 4.05l.003.064a41.455 41.455 0 0 0 .135 1.953l.01.083.008.085c.023.214.044.428.061.642.032.38.082.756.14 1.132a16.043 16.043 0 0 1 .083.64l.007.063c.006.051.006.051.032.098.007.039.012.078.017.117l.01.07.018.149.01.07.008.065a.18.18 0 0 0 .032.1c.007.049.013.097.018.146.03.242.084.48.135.717.037.173.072.346.103.52.031.169.066.335.11.502.016.068.027.135.038.205.02.13.05.256.084.383.035.139.064.279.091.42.056.28.127.557.194.834.136.567.136.567.195.822.026.117.055.233.085.35l.053.225c.04.174.085.346.135.518.069.236.069.236.069.334l.048.024a14.705 14.705 0 0 0 .071.286l.015.06c.066.27.143.536.227.8.018.063.032.124.044.188l.067-.061c.091-.08.19-.141.292-.205a4.37 4.37 0 0 0 .265-.187c.083-.06.17-.113.257-.166l.05-.032.16-.098.052-.032c.14-.087.283-.166.428-.243l.145-.079.222-.12c.149-.08.149-.08.296-.163.277-.158.572-.289.861-.424l.071-.033c.288-.133.58-.255.878-.365.153-.056.303-.117.454-.178a4.76 4.76 0 0 1 .328-.12c.097-.032.194-.066.29-.1l.063-.022.324-.117c.096-.035.194-.065.292-.094.069-.02.137-.043.205-.066a8.32 8.32 0 0 1 .558-.165 2.89 2.89 0 0 0 .31-.097 2.91 2.91 0 0 1 .367-.107c.108-.026.216-.055.323-.087.107-.03.214-.059.324-.08.048-.01.048-.01.097-.034.097-.036.197-.057.298-.079l.068-.015a78.064 78.064 0 0 1 .391-.087c.762-.172.762-.172 1.09-.213.08-.011.08-.011.165-.035.157-.041.32-.05.48-.067a4.1 4.1 0 0 0 .418-.065c.187-.04.373-.057.563-.073.064-.005.128-.01.192-.017l.084-.006c.086-.012.165-.034.248-.059a1.49 1.49 0 0 1 .162-.02l.06-.005.062-.006c.16-.015.32-.025.48-.03a.673.673 0 0 0 .208-.034c.11-.035.22-.034.336-.037.145-.005.286-.013.43-.035.093-.006.185-.01.278-.014a.781.781 0 0 0 .222-.033l.108-.007.066-.003.071-.002.073-.003.31-.012.226-.009.07-.002.066-.003.059-.002c.048-.002.048-.002.094-.029.879-.09 1.79-.05 2.672-.049a219.858 219.858 0 0 0 1.066.002v.047h.076c.839-.004.839-.004 1.207.01l.074.004c.164.007.164.007.19.034l.192.012c.02 0 .039.002.059.003a57.8 57.8 0 0 0 .37.018l.116.005c.083.004.16.013.24.033.046.005.093.01.14.013l.08.006.083.007.085.006.207.016v.048l.048-.001c.16-.002.317.007.476.025v.047h.05a3.01 3.01 0 0 1 .426.024v.047h.041c.116-.002.226.003.34.024l.024.024c.064.01.128.018.192.025l.055.007.134.016v.047l.06.004.083.005.08.005c.078.01.15.025.227.045a3.782 3.782 0 0 0 .21.048l.11.024c.11.024.217.053.325.084.047.008.095.017.143.023v.048l.262.024v.047l.238.024v.048l.214.024v.047l.048.004a.87.87 0 0 1 .31.068c.039.009.078.017.118.024v.047l.167.024v.048l.214.023v.048l.19.024v.047l.168.024v.048l.19.024v.047l.167.024v.048l.142.024v.047l.143.024v.048l.143.023v.048l.143.024v.047l.143.024v.048l.062.007a.75.75 0 0 1 .224.088v.048l.119.024v.047l.095.024v.048l.094.009a.613.613 0 0 1 .096.014l.024.048.072.024v.047l.142.024v.048l.143.024v.047l.143.024v.048l.12.024v.047l.094.024v.048l.143.023v.048l.12.024v.047l.095.024v.048l.119.024v.047l.095.024v.048l.119.024v.047l.095.024v.048l.12.023v.048l.094.024v.047l.054.007c.079.02.107.053.16.113l.072.047v.048l.055.007a.202.202 0 0 1 .136.088v.048l.095.023v.048l.071.024v.047l.054.005c.085.025.11.068.16.138l.048.024v.048l.043.02a.866.866 0 0 1 .124.075v.048l.071.023v.048l.072.024v.047l.071.024v.048l.072.024v.047l.071.024v.048l.072.024v.047l.07.024v.048h.049l.023.095h.048c.033.039.064.079.095.119l.042.039c.03.032.03.032.03.104l.071.024v.047l.072.024c.024.04.048.079.07.12l.041.038c.031.032.031.032.031.104l.072.024v.047h.047l.024.072.048.024c.015.06.015.06.024.119h.047l.024.095h.048l.023.119h.048l.024.095h.047l.024.12h.048l.024.142h.047c.096.158.096.158.096.238h.047l.024.143h.048l.023.143h.048l.048.126.026.072c.021.064.021.064.021.135h.048l.024.167h.047c.05.136.082.26.096.405h.047l.024.214h.048l.023.238h.048l.009.042a39.49 39.49 0 0 1 .024.111c.014.063.014.063.038.13.026.08.045.159.063.24l.019.086c.013.076.016.147.014.224h.047a2.2 2.2 0 0 1 .024.429h.048c.022.175.026.347.024.524h.047c.02.239.027.474.024.714h.048c.024.397.026.793.023 1.19h.048v2.286h-.047v.04c.002.282-.002.56-.024.841h-.048v.065c.002.17-.002.337-.024.507h-.047v.055a2.45 2.45 0 0 1-.024.42h-.048l-.024.382h-.047l-.024.31h-.048l-.023.309h-.048l-.024.238h-.047l-.024.262h-.048l-.024.214h-.047l-.024.214h-.048l-.024.215h-.047l-.024.166h-.048l-.023.19h-.048l-.024.168h-.047l-.024.166h-.048l-.024.167h-.047l-.024.143h-.048l-.024.142h-.047l-.008.053a.499.499 0 0 1-.088.186h-.047l-.024.142h-.047l-.024.12h-.048l-.024.095h-.047l-.008.05a.777.777 0 0 1-.088.212l-.047.023-.024.072h-.048l-.023.071h-.048l-.024.12h-.047l-.024.095h-.048l-.004.053c-.026.085-.069.109-.139.16l-.024.072h-.047l-.024.072h-.048l-.016.05a.848.848 0 0 1-.222.283h-.047l-.024.095h-.048l-.024.072h-.047l-.024.071h-.048l-.023.072h-.048l-.024.071h-.047l-.024.072-.055.032c-.066.035-.066.035-.106.093a1.192 1.192 0 0 1-.268.232h-.047l-.024.071h-.048l-.024.072h-.047v.047l-.072.024-.035.037c-.036.034-.036.034-.108.034l-.023.072h-.048v.047l-.072.024-.035.037c-.036.035-.036.035-.107.035l-.024.071h-.072v.048l-.119.023-.023.072h-.072v.047l-.119.024-.024.072h-.071v.047a9.77 9.77 0 0 1-.091.048l-.051.027c-.049.02-.049.02-.12.02v.048c-.158.096-.158.096-.238.096v.047l-.143.024v.047l-.143.024v.048l-.143.024v.047l-.143.024v.048a19.27 19.27 0 0 1-.126.047l-.071.027c-.064.021-.064.021-.136.021v.048l-.058.022a8.12 8.12 0 0 0-.474.194.421.421 0 0 1-.182.022v.047l-.137.048-.077.027c-.072.02-.072.02-.167.02v.048l-.215.024v.048l-.261.023v.048l-.239.024v.047l-.261.024v.048l-.286.024v.047l-.31.024v.048a1.509 1.509 0 0 1-.333.024v.047l-.38.024v.048c-.047.004-.047.004-.093.01l-.12.012-.06.006-.058.007-.054.005c-.046.005-.046.005-.092.031-.15.026-.3.027-.453.024v.047a6.476 6.476 0 0 1-.642.024v.048l-.078.004-.286.015a51.293 51.293 0 0 1-.301.016c-.019 0-.037.002-.056.003-.095.003-.095.003-.184.033a3.91 3.91 0 0 1-.205.008l-.15.004c-.36-.024-.36-.024-.669.06a2.583 2.583 0 0 1-.133.003h-1.416l-.771-.001a2608.335 2608.335 0 0 1-2.467 0h-.075l-.376-.001-3.118-.001v-.048h-7.857c-.193-.578-.352-1.153-.405-1.762l-.008-.084c-.105-1.32.068-2.737.58-3.963l.02-.049a6.994 6.994 0 0 1 1.027-1.737l.03-.037a7.258 7.258 0 0 1 .57-.617 5.176 5.176 0 0 1 .5-.435 8.175 8.175 0 0 1 1.544-.96l.139-.068c1.389-.683 2.949-.968 4.479-1.097l.082-.007a6.991 6.991 0 0 1 .697-.018H65v-.047c.14-.04.263-.054.408-.054h.274l.153-.001.326-.001.518-.002a750.04 750.04 0 0 1 2.288-.006l.513-.002c.672 0 .672 0 1.344-.016l.078-.003c.105.005.105.005.193-.034a4.64 4.64 0 0 1 .233-.015l.23-.012.168-.008.053-.003c.082.002.082.002.15-.033.042-.005.084-.01.126-.012l.078-.006.163-.012.078-.006.071-.005c.054-.001.054-.001.079-.03.158-.024.317-.027.476-.025v-.047a2.98 2.98 0 0 1 .429-.024v-.047l.066-.01.087-.013.086-.012c.067-.006.067-.006.094-.037a4.309 4.309 0 0 1 .243-.02c.022 0 .044-.002.066-.004v-.047l.286-.024v-.048l.042-.009a2.15 2.15 0 0 0 .251-.065c.064-.021.064-.021.16-.021v-.048c.135-.05.26-.082.404-.095v-.047l.167-.024v-.048l.126-.048.072-.026c.064-.021.064-.021.135-.021v-.048l.143-.024v-.047L76 58.38v-.048l.143-.023.024-.072h.071v-.047l.12-.024v-.048c.16-.095.16-.095.213-.095v-.048l.072-.024.024-.047c.06-.015.06-.015.119-.024l.023-.072h.048v-.047l.072-.024c.032-.039.064-.078.095-.119.045-.055.06-.07.132-.082l.058-.013c.017-.032.033-.063.048-.095.03-.04.06-.08.092-.12.016-.02.032-.04.05-.06.045-.055.09-.106.144-.154h.047v-.071h.048l.024-.072h.047l.024-.119h.048l.023-.095h.048l.024-.119h.048l.007-.039c.02-.071.053-.133.088-.2h.047l.005-.054c.028-.125.083-.234.138-.35a2.67 2.67 0 0 0 .151-.445l.038-.13c.15-.502.177-1 .176-1.52v-.072c0-.476 0-.476-.068-.947a1.901 1.901 0 0 1-.023-.14 1.702 1.702 0 0 0-.06-.246l-.015-.053a13.498 13.498 0 0 0-.056-.185l-.021-.07a2.17 2.17 0 0 0-.17-.402c-.023-.052-.023-.052-.023-.147h-.048a7.622 7.622 0 0 1-.047-.09c-.01-.016-.018-.032-.027-.05-.021-.05-.021-.05-.021-.146l-.071-.023c-.04-.055-.04-.055-.08-.124a1.984 1.984 0 0 0-.206-.281c-.072-.089-.072-.089-.072-.143l-.071-.024c-.071-.082-.071-.082-.071-.143l-.072-.024v-.047h-.047l-.096-.12a4.038 4.038 0 0 0-.119-.095c-.043-.038-.043-.038-.071-.07v-.048l-.072-.024v-.048l-.043-.02c-.052-.028-.052-.028-.123-.075v-.048l-.072-.024v-.047l-.119-.024v-.048l-.095-.023v-.048l-.071-.024v-.047l-.12-.024v-.048l-.04-.007a.58.58 0 0 1-.174-.088v-.048L76 49.452v-.047a139.44 139.44 0 0 0-.143-.024v-.048l-.119-.023v-.048l-.143-.024v-.047l-.062-.008a.75.75 0 0 1-.224-.088v-.047l-.142-.024v-.048l-.06-.006a.815.815 0 0 1-.225-.09 1.066 1.066 0 0 0-.215-.07v-.048l-.167-.024v-.047l-.214-.024v-.048l-.215-.024v-.047l-.214-.024v-.048l-.048-.003a.898.898 0 0 1-.309-.068 2.998 2.998 0 0 0-.143-.024v-.048l-.057-.003a1.235 1.235 0 0 1-.371-.068 3.46 3.46 0 0 0-.143-.024v-.047l-.085.001c-.119 0-.23-.011-.344-.05a6.36 6.36 0 0 0-.144-.022 4.916 4.916 0 0 1-.29-.05 2.435 2.435 0 0 0-.28-.04c-.048-.006-.048-.006-.093-.018-.083-.02-.169-.026-.254-.034a3.798 3.798 0 0 1-.36-.05 2.779 2.779 0 0 0-.403-.041c-.08-.006-.08-.006-.136-.018a1.74 1.74 0 0 0-.217-.024l-.088-.006-.092-.006-.18-.012-.08-.005c-.073-.007-.073-.007-.128-.018-.097-.018-.195-.02-.293-.025a52.744 52.744 0 0 0-.07-.003c-.317-.013-.635-.017-.953-.021-.534-.008-.534-.008-.77-.03a4.54 4.54 0 0 0-.33-.005c-.137 0-.273-.001-.41-.005-1.35-.034-2.7-.04-4.05.026l-.064.003c-.472.023-.943.05-1.413.09l-.23.018c-.104.008-.207.016-.31.027l-.083.01-.085.008a23.21 23.21 0 0 1-.642.061c-.38.032-.756.082-1.132.14a16.043 16.043 0 0 1-.64.083l-.063.007c-.051.006-.051.006-.098.032a2.92 2.92 0 0 1-.117.017l-.07.01-.149.018-.07.01a59.54 59.54 0 0 0-.065.008c-.053.006-.053.006-.1.032a6.524 6.524 0 0 1-.146.018c-.242.03-.48.084-.717.135a17.96 17.96 0 0 1-.52.103 6.709 6.709 0 0 0-.502.11 2.533 2.533 0 0 1-.205.038c-.13.02-.256.05-.383.084a7.37 7.37 0 0 1-.42.091c-.28.056-.557.127-.835.194-.566.136-.566.136-.821.195-.117.026-.233.055-.35.085l-.225.053c-.174.04-.346.085-.518.135-.236.069-.236.069-.334.069l-.024.048a3.63 3.63 0 0 1-.19.047l-.096.024-.06.015c-.27.066-.536.143-.8.227a1.812 1.812 0 0 1-.188.044l.061.067c.08.091.141.19.205.292.058.091.122.178.187.265.06.083.113.17.166.257l.032.05.098.16.032.052c.087.14.166.283.243.428l.078.145.12.222c.08.149.08.149.164.296.158.277.289.572.424.861l.033.071c.133.288.255.58.365.878.056.153.117.303.178.454.044.108.084.217.12.328.032.097.066.194.1.29l.022.063.117.324c.035.096.065.194.094.292.02.069.043.137.066.205.062.184.117.37.165.558.028.105.058.208.097.31.046.12.077.242.107.367.026.108.055.216.087.323.03.107.059.214.08.324.01.048.01.048.034.097.036.097.057.197.079.298l.015.068a78.064 78.064 0 0 1 .087.391c.172.762.172.762.213 1.09.011.08.011.08.035.165.041.157.05.32.067.48a4.1 4.1 0 0 0 .065.418c.04.187.057.373.073.563a30.376 30.376 0 0 0 .023.276c.012.086.034.165.059.248a1.49 1.49 0 0 1 .02.162l.005.06.006.062c.015.16.025.32.03.48.003.074.01.138.034.208.035.11.034.22.037.336.005.145.013.286.035.43.006.093.01.185.014.278a.781.781 0 0 0 .033.222l.007.108.003.066.002.071.003.073.012.31.009.226.002.07.003.066.002.059c.002.048.002.048.029.094.09.879.05 1.79.049 2.672a219.858 219.858 0 0 0-.002 1.066h-.047v.076c.004.839.004.839-.01 1.207l-.004.074c-.007.164-.007.164-.034.19a5.337 5.337 0 0 0-.012.192c0 .02-.002.039-.003.059a57.8 57.8 0 0 0-.018.37l-.005.116c-.004.083-.013.16-.033.24a4.327 4.327 0 0 0-.02.22l-.006.083-.006.085-.016.207h-.048l.001.048c.002.16-.007.317-.025.476h-.047v.05a3.01 3.01 0 0 1-.024.426h-.047v.041c.002.116-.003.226-.024.34l-.024.024c-.01.064-.018.128-.025.192l-.007.055-.016.134h-.047l-.004.06-.005.083-.005.08c-.01.078-.025.15-.045.227a3.95 3.95 0 0 0-.037.156l-.011.055c-.009.036-.016.073-.024.11-.024.11-.053.216-.084.324a4.299 4.299 0 0 0-.023.143h-.048l-.024.262h-.047l-.024.238h-.048l-.024.214h-.047l-.004.048a.87.87 0 0 1-.068.31 2.239 2.239 0 0 0-.024.118h-.047l-.024.167h-.048l-.023.214h-.048l-.024.19h-.047l-.024.168h-.048l-.024.19h-.047l-.024.167h-.048l-.024.142h-.047l-.024.143h-.048l-.023.143h-.048l-.024.143h-.047l-.024.143h-.048l-.007.062a.75.75 0 0 1-.088.224h-.048l-.024.119h-.047l-.024.095h-.048l-.009.094c-.005.052-.005.052-.014.096l-.048.024-.024.072h-.047l-.024.142h-.048l-.024.143h-.047l-.024.143h-.048l-.024.12h-.047l-.024.094h-.048l-.023.143h-.048l-.024.12h-.047l-.024.095h-.048l-.024.119h-.047l-.024.095h-.048l-.024.119h-.047l-.024.095h-.048l-.023.12h-.048l-.024.094h-.047l-.007.054c-.02.079-.053.107-.113.16l-.047.072h-.048l-.007.055a.202.202 0 0 1-.088.136h-.048l-.023.095h-.048l-.024.071h-.047l-.005.054c-.025.085-.068.11-.138.16l-.024.048h-.048l-.02.043c-.027.052-.027.052-.075.124h-.048l-.023.071h-.048l-.024.072h-.047l-.024.071h-.048l-.024.072h-.047l-.024.071h-.048l-.024.072h-.047l-.024.07h-.048v.049l-.095.023v.048a3.522 3.522 0 0 1-.119.095l-.039.042c-.032.03-.032.03-.104.03l-.024.071h-.047l-.024.072c-.04.024-.079.048-.12.07l-.038.041c-.032.031-.032.031-.104.031l-.024.072h-.047v.047l-.072.024-.024.048c-.06.015-.06.015-.119.024v.047l-.095.024v.048l-.119.023v.048l-.095.024v.047l-.12.024v.048l-.142.024v.047c-.158.096-.158.096-.238.096v.047l-.143.024v.048l-.143.023v.048a27.38 27.38 0 0 1-.126.048l-.072.026c-.064.021-.064.021-.135.021v.048l-.167.024v.047c-.136.05-.26.082-.405.096v.047l-.214.024v.048l-.238.023v.048a7.455 7.455 0 0 1-.042.009l-.056.012a8.53 8.53 0 0 1-.056.012c-.062.014-.062.014-.129.038a2.35 2.35 0 0 1-.24.063l-.086.019a1.077 1.077 0 0 1-.224.014v.047a2.201 2.201 0 0 1-.429.024v.048a3.755 3.755 0 0 1-.524.024v.047a7.702 7.702 0 0 1-.714.024v.048c-.397.024-.793.026-1.19.023v.048h-2.286v-.047h-.04a9.594 9.594 0 0 1-.841-.024v-.048h-.065a3.698 3.698 0 0 1-.507-.024v-.047h-.055a2.568 2.568 0 0 1-.42-.024v-.048l-.382-.024v-.047l-.31-.024v-.048l-.309-.023v-.048l-.238-.024v-.047l-.262-.024v-.048l-.214-.024v-.047l-.214-.024v-.048l-.215-.024v-.047l-.166-.024v-.048l-.19-.023v-.048l-.167-.024v-.047l-.167-.024v-.048l-.167-.024v-.047l-.143-.024v-.048l-.142-.024v-.047l-.053-.008a.499.499 0 0 1-.186-.088v-.047l-.142-.024v-.047l-.12-.024v-.048l-.095-.024v-.047l-.05-.008a.777.777 0 0 1-.212-.088 10.554 10.554 0 0 0-.023-.047l-.072-.024v-.048l-.071-.023v-.048l-.12-.024v-.047l-.095-.024v-.048l-.053-.004c-.085-.026-.109-.069-.16-.139l-.072-.024v-.047l-.072-.024v-.048l-.05-.016a.848.848 0 0 1-.283-.222v-.047l-.095-.024v-.048l-.072-.024v-.047a29.396 29.396 0 0 0-.071-.024v-.048l-.072-.023v-.048l-.071-.024v-.047l-.072-.024-.032-.055c-.035-.066-.035-.066-.093-.106a1.192 1.192 0 0 1-.232-.268v-.047l-.071-.024v-.048l-.072-.024v-.047h-.047l-.024-.072-.037-.035c-.034-.036-.034-.036-.034-.108l-.072-.023v-.048h-.047l-.024-.072-.037-.035c-.035-.036-.035-.036-.035-.107l-.071-.024v-.072h-.048l-.023-.119-.072-.023v-.072h-.047l-.024-.119-.072-.024v-.071h-.047a9.77 9.77 0 0 1-.048-.091l-.027-.051c-.02-.049-.02-.049-.02-.12h-.048c-.096-.158-.096-.158-.096-.238h-.047l-.024-.143h-.047l-.024-.143h-.048l-.024-.143h-.047l-.024-.143h-.048a19.27 19.27 0 0 1-.047-.126l-.027-.071c-.021-.064-.021-.064-.021-.136h-.048l-.021-.058a9.307 9.307 0 0 0-.195-.474.421.421 0 0 1-.022-.182h-.047a22.174 22.174 0 0 1-.048-.137l-.027-.077c-.02-.072-.02-.072-.02-.167h-.048a343.8 343.8 0 0 1-.024-.215h-.048l-.023-.261h-.048l-.024-.239h-.047l-.024-.261h-.048l-.024-.286h-.047l-.024-.31h-.048a1.509 1.509 0 0 1-.024-.333h-.047l-.024-.38h-.048a27.06 27.06 0 0 0-.01-.093l-.012-.12-.006-.06-.006-.058-.006-.054c-.005-.046-.005-.046-.031-.092-.026-.15-.027-.3-.024-.453h-.047a6.445 6.445 0 0 1-.024-.642h-.048l-.004-.078-.015-.286a51.293 51.293 0 0 1-.016-.301l-.003-.056c-.003-.095-.003-.095-.033-.184a3.91 3.91 0 0 1-.007-.157l-.001-.048-.004-.15c.024-.36.024-.36-.06-.669a2.475 2.475 0 0 1-.003-.133v-1.417l.001-.771a2608.335 2608.335 0 0 1 0-2.467v-.075l.001-.376.001-3.118h.048v-7.857c.578-.193 1.152-.352 1.762-.405l.084-.008c1.32-.105 2.737.068 3.963.58l.049.02c.626.261 1.21.598 1.737 1.027l.037.03a7.258 7.258 0 0 1 .617.57 5.193 5.193 0 0 1 .435.5c.378.477.697.996.96 1.544l.068.139c.683 1.389.968 2.949 1.097 4.479l.007.082a6.991 6.991 0 0 1 .018.697V65h.047c.04.14.054.263.054.408a13.118 13.118 0 0 1 0 .275l.001.151.001.327.002.518a750.04 750.04 0 0 1 .006 2.288l.002.513a40.406 40.406 0 0 0 .019 1.422c-.005.105-.005.105.034.193.005.06.009.119.012.179l.003.054a59.223 59.223 0 0 1 .02.398l.003.053c-.002.082-.002.082.033.15.005.042.01.084.012.126l.006.078.012.163.006.078.005.071c.001.054.001.054.03.079.024.158.027.317.025.476h.047c.018.144.026.283.024.429h.047a17.786 17.786 0 0 1 .023.153l.012.086c.006.067.006.067.037.094a3.9 3.9 0 0 1 .02.243c0 .022.002.044.004.066h.047l.024.286h.048l.008.042c.019.086.038.168.066.251a.346.346 0 0 1 .021.16h.048c.05.135.082.26.095.404h.047l.024.167h.048a21.704 21.704 0 0 1 .074.198c.021.064.021.064.021.135h.048l.024.143h.047l.024.143h.048l.023.143.072.024v.071h.047l.024.12h.048c.095.16.095.16.095.213h.048l.024.072.047.024c.015.06.015.06.024.119l.072.023v.048h.047l.024.072c.039.032.078.064.119.095.055.045.07.06.082.132l.013.058c.032.017.063.033.095.048a3.537 3.537 0 0 1 .18.141c.055.046.106.092.154.145v.047h.071v.048l.072.024v.047l.119.024v.048l.095.023v.048l.119.024v.048l.039.007c.071.02.133.053.199.088v.047l.055.005c.125.028.234.083.35.138.144.068.292.11.445.151l.13.038c.502.15 1 .177 1.52.176h.072c.476 0 .476 0 .947-.068.046-.01.093-.016.14-.023.086-.013.163-.034.246-.06l.053-.015.185-.056.07-.021c.142-.046.272-.098.402-.17.052-.023.052-.023.147-.023v-.048l.09-.047c.016-.01.032-.018.05-.027.05-.021.05-.021.146-.021l.023-.071c.055-.04.055-.04.124-.08a1.97 1.97 0 0 0 .281-.206c.089-.072.089-.072.143-.072l.024-.071c.082-.071.082-.071.143-.071l.024-.072h.047v-.047l.12-.096.095-.119c.038-.043.038-.043.07-.071h.048l.024-.072h.048l.02-.043c.028-.052.028-.052.075-.123h.048l.024-.072h.047l.024-.119h.048l.023-.095h.048l.024-.071h.047l.024-.12h.048l.007-.04a.58.58 0 0 1 .088-.174h.048l.024-.095h.047l.024-.143h.048l.023-.119h.048l.024-.143h.047l.008-.062a.75.75 0 0 1 .088-.224h.047l.024-.142h.048l.006-.06a.815.815 0 0 1 .09-.225c.033-.07.052-.14.07-.215h.048l.024-.167h.047l.024-.214h.048l.024-.215h.047l.024-.214h.048l.003-.048a.898.898 0 0 1 .068-.309c.01-.047.017-.095.024-.143h.048l.003-.057c.01-.132.02-.247.068-.371a3.46 3.46 0 0 0 .024-.143h.047l-.001-.085c0-.119.011-.23.05-.344a6.36 6.36 0 0 0 .022-.144c.014-.098.03-.194.05-.29.02-.093.032-.185.04-.28.006-.048.006-.048.018-.093.02-.083.026-.169.034-.254.013-.121.027-.24.05-.36.027-.134.034-.267.041-.403.006-.08.006-.08.018-.136a1.74 1.74 0 0 0 .024-.217l.006-.088.006-.092.012-.18.005-.08c.007-.073.007-.073.018-.128.018-.097.02-.195.025-.293l.003-.07c.013-.317.017-.635.021-.953.008-.534.008-.534.03-.77.007-.11.006-.22.005-.33 0-.137.001-.273.005-.41.034-1.35.04-2.7-.026-4.05l-.003-.064c-.023-.472-.05-.943-.09-1.413l-.018-.23a10.048 10.048 0 0 0-.027-.31l-.01-.083-.008-.085a27.053 27.053 0 0 1-.061-.642c-.032-.38-.082-.756-.14-1.132a16.278 16.278 0 0 1-.083-.64l-.007-.063c-.006-.051-.006-.051-.032-.098a2.92 2.92 0 0 1-.017-.117l-.01-.07-.018-.149-.01-.07a59.54 59.54 0 0 0-.008-.065c-.006-.053-.006-.053-.032-.1a5.986 5.986 0 0 1-.018-.146c-.03-.242-.084-.48-.135-.717a17.96 17.96 0 0 1-.103-.52 6.899 6.899 0 0 0-.11-.502 2.49 2.49 0 0 1-.038-.205 3.985 3.985 0 0 0-.084-.383 7.37 7.37 0 0 1-.091-.42c-.056-.28-.127-.557-.194-.835-.136-.566-.136-.566-.195-.821a15.524 15.524 0 0 0-.085-.35l-.053-.225a9.288 9.288 0 0 0-.135-.518c-.07-.236-.07-.236-.07-.334l-.047-.024a33.15 33.15 0 0 0-.071-.286l-.015-.06c-.066-.27-.143-.536-.227-.8a1.786 1.786 0 0 1-.044-.188l-.067.061c-.091.08-.19.141-.292.205a4.35 4.35 0 0 0-.265.187c-.083.06-.17.113-.257.166l-.05.032-.16.098-.052.032c-.14.087-.283.166-.428.243l-.145.078-.222.12c-.149.08-.149.08-.296.164-.277.158-.572.289-.861.424l-.071.033c-.288.133-.58.255-.878.365-.153.056-.303.117-.454.178a4.986 4.986 0 0 1-.328.12 14.15 14.15 0 0 0-.29.1l-.063.022-.324.117a4.543 4.543 0 0 1-.292.094c-.069.02-.137.043-.205.066-.184.062-.37.117-.558.165a2.895 2.895 0 0 0-.31.097 2.91 2.91 0 0 1-.367.107 7.218 7.218 0 0 0-.323.087 3.6 3.6 0 0 1-.324.08c-.048.01-.048.01-.097.034-.097.036-.197.057-.298.079l-.068.015a78.064 78.064 0 0 1-.391.087c-.762.172-.762.172-1.09.213-.08.011-.08.011-.165.035-.157.041-.32.05-.481.067-.14.015-.278.036-.417.065a4.563 4.563 0 0 1-.563.073 32.25 32.25 0 0 1-.276.023 1.621 1.621 0 0 0-.248.059 1.498 1.498 0 0 1-.162.02l-.06.005-.062.006c-.16.015-.32.025-.48.03a.673.673 0 0 0-.208.034c-.111.035-.22.034-.336.037a3.663 3.663 0 0 0-.43.035c-.093.006-.185.01-.278.014a.781.781 0 0 0-.222.033 2.161 2.161 0 0 1-.108.007l-.066.003-.071.002-.073.003-.31.012-.226.009-.07.002-.066.003-.058.002c-.05.002-.05.002-.095.029-.879.09-1.79.05-2.672.049a219.858 219.858 0 0 0-1.066-.002v-.047h-.076c-.839.004-.839.004-1.207-.01l-.074-.004c-.164-.007-.164-.007-.19-.034a5.328 5.328 0 0 0-.192-.012c-.02 0-.039-.002-.059-.003a57.8 57.8 0 0 0-.37-.018l-.116-.005a1.157 1.157 0 0 1-.24-.033 4.327 4.327 0 0 0-.22-.02l-.083-.006-.085-.006-.207-.016v-.048l-.048.001a4.022 4.022 0 0 1-.476-.025v-.047h-.05a3.009 3.009 0 0 1-.426-.024v-.047h-.041a1.698 1.698 0 0 1-.34-.024 2.67 2.67 0 0 0-.024-.024 5.658 5.658 0 0 0-.192-.025l-.055-.007-.134-.016v-.047l-.06-.004a37.922 37.922 0 0 0-.083-.005l-.08-.005a1.562 1.562 0 0 1-.227-.045 3.95 3.95 0 0 0-.21-.048 4.25 4.25 0 0 0-.577-.131v-.048l-.263-.024v-.047l-.238-.024v-.048l-.214-.024v-.047l-.048-.004a.87.87 0 0 1-.31-.068 2.411 2.411 0 0 0-.118-.024v-.047l-.167-.024v-.048l-.214-.023v-.048l-.19-.024v-.047l-.168-.024v-.048l-.19-.024v-.047l-.167-.024v-.048l-.143-.024v-.047l-.142-.024v-.048l-.143-.023v-.048l-.143-.024v-.047l-.143-.024v-.048l-.062-.007a.75.75 0 0 1-.224-.088v-.048l-.119-.024v-.047l-.095-.024v-.048l-.094-.009c-.052-.005-.052-.005-.096-.014l-.024-.048-.072-.024v-.047l-.143-.024v-.048l-.142-.024v-.047l-.143-.024v-.048l-.12-.024v-.047l-.095-.024v-.048l-.142-.023v-.048l-.12-.024v-.047l-.095-.024v-.048l-.119-.024v-.047l-.095-.024v-.048l-.119-.024v-.047l-.095-.024v-.048l-.12-.023v-.048l-.095-.024v-.047l-.053-.007c-.079-.02-.107-.053-.16-.113l-.072-.047v-.048l-.055-.007c-.069-.018-.094-.033-.136-.088v-.048l-.095-.023v-.048l-.071-.024v-.047a23.054 23.054 0 0 0-.054-.005c-.085-.025-.11-.068-.16-.138a10.554 10.554 0 0 1-.048-.024v-.048l-.043-.02c-.052-.027-.052-.027-.124-.075v-.048l-.071-.023v-.048l-.072-.024v-.047l-.071-.024v-.048l-.072-.024v-.047l-.071-.024v-.048l-.072-.024v-.047l-.07-.024v-.048h-.049l-.023-.095h-.048a3.52 3.52 0 0 1-.095-.119l-.042-.039c-.03-.032-.03-.032-.03-.104l-.071-.024v-.047a29.396 29.396 0 0 0-.072-.024 3.173 3.173 0 0 1-.07-.12l-.041-.038c-.031-.032-.031-.032-.031-.104l-.072-.024v-.047h-.047l-.024-.072-.048-.024c-.015-.06-.015-.06-.024-.119h-.047a64.855 64.855 0 0 1-.024-.095h-.048l-.023-.119h-.048l-.024-.095h-.047l-.024-.12h-.048l-.024-.142h-.047c-.096-.158-.096-.158-.096-.238h-.047l-.024-.143h-.048l-.023-.143h-.048a19.27 19.27 0 0 1-.048-.126l-.026-.072c-.021-.064-.021-.064-.021-.135h-.048l-.024-.167h-.047a1.534 1.534 0 0 1-.096-.405h-.047l-.024-.214h-.048l-.024-.238h-.047a7.455 7.455 0 0 1-.009-.042l-.012-.056a38.428 38.428 0 0 1-.012-.056c-.014-.062-.014-.062-.038-.129a2.35 2.35 0 0 1-.063-.24l-.019-.086a1.077 1.077 0 0 1-.014-.224h-.047a2.201 2.201 0 0 1-.024-.429h-.048a3.74 3.74 0 0 1-.024-.524h-.047a7.737 7.737 0 0 1-.024-.714h-.048a17.501 17.501 0 0 1-.024-1.19h-.047v-2.286h.047v-.04c-.002-.282.002-.56.024-.841h.048v-.065c-.002-.17.002-.337.024-.507h.047v-.055a2.45 2.45 0 0 1 .024-.42h.048l.024-.382h.047l.024-.31h.048l.024-.309h.047l.024-.238h.047l.024-.262h.048l.024-.214h.047l.024-.214h.048l.024-.215h.047l.024-.166h.048l.023-.19h.048l.024-.167h.047l.024-.167h.048l.024-.167h.047l.024-.143h.048l.024-.142h.047l.008-.053a.499.499 0 0 1 .087-.186h.048l.024-.142h.047l.024-.12h.048l.024-.095h.047l.008-.05a.777.777 0 0 1 .088-.212l.047-.023.024-.072h.048l.023-.071h.048l.024-.12h.047l.024-.095h.048l.004-.053c.026-.085.069-.109.139-.16l.024-.072h.047l.024-.072h.048l.016-.05a.846.846 0 0 1 .222-.283h.047l.024-.095h.048l.024-.072h.047l.024-.071h.048l.023-.072h.048l.024-.071h.047l.024-.072.055-.032c.066-.035.066-.035.106-.093.076-.092.168-.165.268-.232h.047l.024-.071h.048l.024-.072h.047v-.047l.072-.024.035-.037c.036-.034.036-.034.108-.034l.023-.072h.048v-.047l.072-.024.035-.037c.036-.035.036-.035.107-.035l.024-.071h.072v-.048l.119-.023.023-.072h.072v-.047l.119-.024.024-.072h.071v-.047l.091-.048.051-.027c.049-.02.049-.02.12-.02v-.048c.158-.096.158-.096.238-.096v-.047l.143-.024v-.047l.143-.024v-.048l.143-.024v-.047l.143-.024v-.048l.126-.047.071-.027c.064-.021.064-.021.136-.021v-.048l.058-.021c.16-.062.318-.125.474-.195a.422.422 0 0 1 .182-.022v-.047l.137-.048.077-.027c.072-.02.072-.02.167-.02v-.048l.215-.024v-.048l.261-.023v-.048l.238-.024v-.047l.262-.024v-.048l.286-.024v-.047l.31-.024v-.048c.113-.023.218-.026.333-.024v-.047l.38-.024v-.048l.093-.01.12-.012.06-.006.058-.006.054-.006c.046-.005.046-.005.092-.031.15-.026.3-.027.453-.024v-.047a5.98 5.98 0 0 1 .642-.024v-.048l.078-.004.286-.015a51.293 51.293 0 0 1 .301-.016l.056-.003c.095-.003.095-.003.184-.033a3.91 3.91 0 0 1 .157-.007l.048-.001.15-.004c.36.024.36.024.669-.06a2.95 2.95 0 0 1 .133-.003h.291a136.04 136.04 0 0 1 .593 0h.533l.771.001a2608.335 2608.335 0 0 1 2.467 0h.075l.376.001 3.118.001v.048h7.857c.193.578.352 1.152.405 1.762l.008.084c.104 1.32-.068 2.737-.58 3.963l-.02.049a6.992 6.992 0 0 1-1.027 1.737l-.03.037c-.158.196-.33.376-.507.554l-.063.063a5.193 5.193 0 0 1-.5.435 8.175 8.175 0 0 1-1.544.96l-.139.068c-1.389.683-2.949.968-4.479 1.097l-.082.007a6.991 6.991 0 0 1-.697.018H35v.047c-.14.04-.263.054-.408.054h-.274l-.152.001-.327.001-.518.002a750.04 750.04 0 0 1-2.288.006l-.513.002c-.672 0-.672 0-1.344.016l-.078.003c-.105-.005-.105-.005-.193.034a4.64 4.64 0 0 1-.179.012l-.054.003a59.223 59.223 0 0 1-.398.02l-.053.003c-.082-.002-.082-.002-.15.033a2.426 2.426 0 0 1-.126.012l-.078.006-.163.012-.078.006-.071.005c-.054.001-.054.001-.079.03a2.984 2.984 0 0 1-.476.025v.047a2.981 2.981 0 0 1-.429.024v.047l-.066.01-.087.013-.086.012c-.067.006-.067.006-.094.037a3.89 3.89 0 0 1-.156.013l-.087.006-.066.005v.047l-.286.024v.048l-.042.008a2.22 2.22 0 0 0-.251.066c-.064.021-.064.021-.16.021v.048c-.135.05-.26.082-.404.095v.047l-.167.024v.048a19.254 19.254 0 0 1-.198.074c-.064.021-.064.021-.135.021v.048l-.143.024v.047L24 41.62v.048l-.143.023-.024.072h-.071v.047l-.12.024v.048c-.16.095-.16.095-.213.095v.048l-.072.024-.024.047c-.06.015-.06.015-.119.024l-.023.072h-.048v.047l-.072.024a3.198 3.198 0 0 0-.095.119c-.045.055-.06.07-.132.082l-.058.013a2.639 2.639 0 0 0-.048.095c-.03.04-.06.08-.092.12l-.05.06a1.598 1.598 0 0 1-.144.154h-.047v.071h-.048l-.024.072h-.047l-.024.119h-.048l-.023.095h-.048l-.024.119h-.048l-.007.039c-.02.071-.053.133-.088.199h-.047l-.005.055c-.027.125-.083.234-.138.35-.068.144-.11.292-.152.445a7.397 7.397 0 0 1-.037.13c-.15.502-.177 1-.176 1.52v.072c0 .476 0 .476.068.947.01.046.017.093.023.14.013.086.034.163.06.246l.015.053.056.185.021.07c.046.142.098.272.17.402.023.052.023.052.023.147h.048l.047.09c.01.016.018.032.027.05.021.05.021.05.021.146l.071.023c.04.055.04.055.08.124.063.102.127.192.206.281.072.089.072.089.072.143l.071.024c.071.082.071.082.071.143l.072.024v.047h.047l.096.12c.039.032.078.064.119.095a.54.54 0 0 1 .071.07v.048l.072.024v.048l.043.02c.052.028.052.028.123.075v.048l.072.024v.047l.119.024v.048l.095.023v.048l.071.024v.047l.12.024v.048l.04.007c.066.02.117.049.174.088v.048l.095.024v.047l.143.024v.048l.119.023v.048l.143.024v.047l.062.008a.75.75 0 0 1 .224.088v.047l.142.024v.048l.06.006a.815.815 0 0 1 .225.09c.07.033.14.052.215.07v.048l.167.024v.047l.214.024v.048l.215.024v.047l.214.024v.048l.048.003c.112.01.205.022.309.068.047.01.095.017.143.024v.048l.057.003c.132.01.247.02.371.068.048.009.095.017.143.024v.047l.085-.001c.119 0 .23.011.344.05l.144.022c.098.014.194.03.29.05.093.02.185.032.28.04.048.006.048.006.093.018.083.02.169.026.254.034.121.013.24.027.36.05.134.027.267.034.403.041a.68.68 0 0 1 .136.018c.072.014.143.019.217.024l.088.006.092.006.18.012.08.005a.72.72 0 0 1 .128.018c.097.018.195.02.293.025l.07.003c.317.013.635.017.953.021.534.008.534.008.77.03.11.007.22.006.33.005.137 0 .273.001.41.005 1.35.034 2.7.04 4.05-.026l.064-.003a41.455 41.455 0 0 0 1.953-.135l.083-.01.085-.008c.214-.023.428-.044.642-.061.38-.032.756-.082 1.132-.14a16.278 16.278 0 0 1 .64-.083l.063-.007c.051-.006.051-.006.098-.032a2.92 2.92 0 0 1 .117-.017l.07-.01.149-.018.07-.01.065-.008c.053-.006.053-.006.1-.032.049-.007.097-.013.146-.018.242-.03.48-.084.717-.135.173-.037.346-.072.52-.103.169-.031.335-.066.502-.11a2.49 2.49 0 0 1 .205-.038c.13-.02.256-.05.383-.084a7.37 7.37 0 0 1 .42-.091c.28-.056.557-.127.834-.194.567-.136.567-.136.822-.195a15.4 15.4 0 0 0 .35-.085l.225-.053c.174-.04.346-.085.518-.135.236-.07.236-.07.334-.07l.024-.047a26.469 26.469 0 0 0 .286-.071l.06-.015c.27-.066.536-.143.8-.227.063-.018.124-.032.188-.044l-.061-.067a2.272 2.272 0 0 1-.205-.292 4.394 4.394 0 0 0-.187-.265 4.514 4.514 0 0 1-.166-.257l-.032-.05-.098-.16a8.459 8.459 0 0 1-.275-.48l-.079-.145-.12-.222c-.08-.149-.08-.149-.163-.296-.158-.277-.289-.572-.424-.861a11.746 11.746 0 0 1-.398-.949 14.221 14.221 0 0 0-.178-.454 4.986 4.986 0 0 1-.12-.328 14.15 14.15 0 0 0-.1-.29l-.022-.063a20.415 20.415 0 0 0-.117-.324 4.543 4.543 0 0 1-.094-.292 6.595 6.595 0 0 0-.066-.205 8.305 8.305 0 0 1-.165-.558 2.895 2.895 0 0 0-.097-.31 2.987 2.987 0 0 1-.107-.367 7.087 7.087 0 0 0-.087-.323 3.634 3.634 0 0 1-.08-.324c-.01-.048-.01-.048-.034-.097-.036-.097-.057-.197-.079-.298l-.015-.068a78.064 78.064 0 0 1-.087-.391c-.172-.762-.172-.762-.213-1.09-.011-.08-.011-.08-.035-.165-.041-.157-.05-.32-.067-.481a4.109 4.109 0 0 0-.065-.417 4.563 4.563 0 0 1-.073-.563 41.41 41.41 0 0 0-.017-.192l-.006-.084a1.609 1.609 0 0 0-.059-.248 1.498 1.498 0 0 1-.02-.162l-.005-.06-.006-.062a7.928 7.928 0 0 1-.03-.48.673.673 0 0 0-.034-.208c-.035-.111-.034-.22-.037-.336a3.641 3.641 0 0 0-.035-.43 12.93 12.93 0 0 1-.014-.278.781.781 0 0 0-.033-.222 2.161 2.161 0 0 1-.007-.108l-.003-.066-.002-.071-.003-.073-.012-.31-.009-.226-.002-.07-.003-.066-.002-.058c-.002-.05-.002-.05-.029-.095-.09-.879-.05-1.79-.049-2.672a219.858 219.858 0 0 0 .002-1.066h.047v-.076c-.004-.839-.004-.839.01-1.207l.004-.074c.007-.164.007-.164.034-.19l.012-.192c0-.02.002-.039.003-.059a57.8 57.8 0 0 0 .018-.37l.005-.116c.004-.083.013-.16.033-.24.005-.046.01-.093.013-.14l.006-.08.007-.083.006-.085.016-.207h.048l-.001-.048c-.002-.16.007-.317.025-.476h.047v-.05a3.009 3.009 0 0 1 .024-.426h.047v-.041a1.698 1.698 0 0 1 .024-.34l.024-.024c.01-.064.018-.128.025-.192l.007-.055.016-.134h.047l.004-.06.005-.083.005-.08c.01-.078.025-.15.045-.227l.037-.156.011-.055c.009-.036.016-.073.024-.11a5.04 5.04 0 0 1 .084-.324 4.25 4.25 0 0 0 .023-.143h.048l.024-.262h.047l.024-.238h.048l.024-.214h.047l.004-.048a.87.87 0 0 1 .068-.31c.009-.039.017-.079.024-.118h.047l.024-.167h.048l.023-.214h.048l.024-.19h.047l.024-.168h.048l.024-.19h.047l.024-.167h.048l.024-.143h.047l.024-.142h.048l.023-.143h.048l.024-.143h.047l.024-.143h.048l.007-.062a.75.75 0 0 1 .088-.224h.048l.024-.119h.047l.024-.095h.048l.009-.094c.005-.052.005-.052.014-.096l.048-.024.024-.072h.047l.024-.143h.048l.024-.142h.047l.024-.143h.048l.024-.12h.047l.024-.095h.048l.023-.142h.048l.024-.12h.047l.024-.095h.048l.024-.119h.047l.024-.095h.048l.024-.119h.047l.024-.095h.048l.023-.12h.048l.024-.095h.047l.007-.053c.02-.079.053-.107.113-.16l.047-.072h.048l.007-.055c.018-.069.033-.094.088-.136h.048l.023-.095h.048l.024-.071h.047l.005-.054c.025-.085.068-.11.138-.16l.024-.048h.048l.02-.043c.027-.052.027-.052.075-.124h.048l.023-.071h.048l.024-.072h.047l.024-.071h.048l.024-.072h.047l.024-.071h.048l.024-.072h.047l.024-.07h.048v-.049l.095-.023v-.048c.039-.033.079-.064.119-.095l.039-.042c.032-.03.032-.03.104-.03l.024-.071h.047l.024-.072a3.26 3.26 0 0 1 .12-.07l.038-.041c.032-.031.032-.031.104-.031l.024-.072h.047v-.047l.072-.024.024-.048c.06-.015.06-.015.119-.024v-.047l.095-.024v-.048l.119-.023v-.048l.095-.024v-.047l.12-.024v-.048l.142-.024v-.047c.158-.096.158-.096.238-.096v-.047l.143-.024v-.048l.143-.023v-.048l.126-.048.072-.026c.064-.021.064-.021.135-.021v-.048l.167-.024v-.047c.136-.05.26-.082.405-.096v-.047l.214-.024v-.048l.238-.024v-.047l.042-.009.056-.012.056-.012c.062-.014.062-.014.129-.038a2.57 2.57 0 0 1 .24-.063l.086-.019a1.12 1.12 0 0 1 .224-.014v-.047a2.2 2.2 0 0 1 .429-.024v-.048c.175-.022.347-.026.524-.024v-.047c.239-.02.474-.027.714-.024v-.048c.397-.024.793-.026 1.19-.024v-.047Z"/>
  <defs>
    <linearGradient id="a" x1="50" x2="50" y1="15.262" y2="84.738" gradientUnits="userSpaceOnUse">
      <stop stop-color="#B6F09C"/>
      <stop offset="1" stop-color="#7ECBED"/>
    </linearGradient>
  </defs>
</svg>
